<svg xmlns="http://www.w3.org/2000/svg" width="30.46" height="31.252" viewBox="0 0 30.46 31.252">
  <path id="Icon_awesome-arrow-down" data-name="Icon awesome-arrow-down" d="M28.817,15.538l1.548,1.548a1.667,1.667,0,0,1,0,2.365L16.813,33.01a1.667,1.667,0,0,1-2.365,0L.889,19.451a1.667,1.667,0,0,1,0-2.365l1.548-1.548a1.676,1.676,0,0,1,2.392.028l8.007,8.4V3.924A1.67,1.67,0,0,1,14.511,2.25h2.232a1.67,1.67,0,0,1,1.674,1.674V23.97l8.007-8.4a1.664,1.664,0,0,1,2.392-.028Z" transform="translate(-0.397 -2.25)" fill="#1a2364"/>
</svg>
